<svg aria-hidden="true" style="position: absolute; width: 0; height: 0; overflow: hidden;" version="1.1" xmlns="http://www.w3.org/2000/svg" xmlns:xlink="http://www.w3.org/1999/xlink">
<defs>
<symbol id="icon-food" viewBox="0 0 32 32">
<path d="M29.462 25.191c0.051-0.122 0.051-0.26 0-0.382s-0.148-0.22-0.27-0.27c-0.061-0.026-0.126-0.038-0.191-0.038h-1.25c-0-6.322-4.994-11.476-11.253-11.738 0-0.005 0.003-0.008 0.003-0.012v-1.332c0.721-0.216 1.25-0.877 1.25-1.668-0-0.967-0.783-1.749-1.75-1.75-0.967 0.001-1.749 0.783-1.75 1.75 0.001 0.792 0.529 1.452 1.25 1.668v1.332c0 0.005 0.002 0.008 0.002 0.012-6.258 0.261-11.252 5.415-11.252 11.738h-1.25c-0.065 0-0.13 0.013-0.191 0.038-0.123 0.051-0.22 0.148-0.271 0.27s-0.051 0.26 0 0.382c0.026 0.061 0.062 0.117 0.108 0.163l2.939 2.939c0.36 0.358 0.84 0.643 1.351 0.858 0.513 0.211 1.055 0.348 1.563 0.349h15c0.508-0.002 1.049-0.139 1.563-0.349 0.512-0.214 0.991-0.5 1.352-0.858l2.939-2.939c0.047-0.046 0.083-0.102 0.108-0.163zM15.25 9.75c0.001-0.414 0.336-0.749 0.75-0.75 0.414 0.001 0.749 0.336 0.75 0.75-0.001 0.414-0.336 0.749-0.75 0.75-0.414-0.001-0.749-0.336-0.75-0.75zM8.399 16.899c1.947-1.947 4.632-3.149 7.601-3.149s5.654 1.203 7.601 3.149c1.947 1.947 3.148 4.631 3.149 7.601h-21.5c0-2.97 1.202-5.654 3.149-7.601zM25.707 27.586c-0.223 0.226-0.611 0.47-1.027 0.64-0.415 0.174-0.861 0.276-1.18 0.273h-15c-0.318 0.002-0.765-0.1-1.179-0.273-0.416-0.171-0.804-0.415-1.027-0.64l-2.086-2.086h23.586l-2.086 2.086z"></path>
<path d="M12.342 16.026c-1.604 0.534-2.682 1.475-3.351 2.279-0.67 0.805-0.941 1.475-0.955 1.51-0.103 0.256 0.023 0.547 0.279 0.65s0.547-0.023 0.65-0.279v-0.001c0.016-0.039 0.267-0.625 0.85-1.305s1.492-1.454 2.844-1.905c0.261-0.087 0.403-0.37 0.316-0.633s-0.371-0.403-0.633-0.316z"></path>
</symbol>
<symbol id="icon-coffee" viewBox="0 0 32 32">
<path d="M7.651 30.804c-0.478-0.246-1.068-0.378-1.47-0.701-0.557-0.166-0.939-0.509-1.4-0.77-0.841-0.59-1.557-1.285-2.153-2.076l-0.017-0.024c-1.239-1.632-1.98-3.761-2.31-6.301-0.044-0.511-0.069-1.106-0.069-1.706 0-0.854 0.050-1.697 0.148-2.525l-0.010 0.1c0.079-0.645 0.155-1.292 0.28-1.891 0.184-0.517 0.27-1.13 0.63-1.47 1.427-0.439 3.181-0.553 4.97-0.63 1.255-0.081 2.597-0.076 3.939-0.071 0.532 0.002 1.065 0.004 1.592 0 0.113 0.020 0.121-0.066 0.21-0.070 2.577 0.036 5.127 0.101 7.631 0.21 2.39 0.201 4.947 0.233 7.071 0.7 0.342 0.638 0.449 1.511 0.49 2.45 0.072 0.062 0.221 0.038 0.384 0.014 0.059-0.019 0.128-0.031 0.199-0.031 0.12 0 0.233 0.032 0.33 0.088l-0.003-0.002c0.027-0 0.059-0.001 0.091-0.001 0.338 0 0.671 0.026 0.995 0.075l-0.036-0.005c0.159 0.145 0.464 0.143 0.63 0.28 0.218 0.063 0.326 0.234 0.56 0.28 0.236 0.3 0.524 0.55 0.77 0.84 0.418 0.88 0.662 1.911 0.662 3 0 0.424-0.037 0.84-0.108 1.243l0.006-0.043c-0.38 0.74-0.74 1.5-1.33 2.030-0.461 0.659-1.182 1.059-1.891 1.47-0.401 0.066-0.727 0.205-1.12 0.28-0.113 0.010-0.244 0.015-0.377 0.015-0.516 0-1.012-0.082-1.477-0.235l0.033 0.009c-0.184 0.194-0.327 0.428-0.416 0.687l-0.004 0.013c-0.204 0.145-0.278 0.422-0.42 0.63-0.675 0.655-1.251 1.41-1.96 2.030-0.698 0.633-1.46 1.2-2.17 1.82-0.695 0.32-1.346 0.754-2.1 0.98-0.072 0.021-0.132-0.011-0.14 0.070-1.080 0.133-2.133 0.294-3.22 0.42q-0.262 0.006-0.515 0.006c-2.477-0.008-4.849-0.445-7.050-1.241l0.146 0.046zM2.822 14.562c-0.436 1.222-0.427 2.887-0.42 4.55 0.025 1.533 0.278 2.999 0.728 4.376l-0.030-0.105c0.055 0.016 0.082 0.058 0.070 0.14 0.293 0.594 0.712 1.061 0.98 1.68 0.179 0.265 0.324 0.563 0.49 0.84 0.207 0.245 0.393 0.52 0.548 0.814l0.012 0.025c0.465 0.398 0.873 0.855 1.33 1.261 0.303 0.047 0.376 0.324 0.7 0.349 0.087 0.262 0.52 0.18 0.63 0.42 0.764 0.193 1.395 0.519 2.24 0.63 0.142 0.089 0.314 0.142 0.499 0.142 0.021 0 0.043-0.001 0.064-0.002l-0.003 0c0.178 0.088 0.387 0.14 0.608 0.14 0.008 0 0.015-0 0.023-0h-0.001c0.387 0.103 0.848 0.132 1.261 0.21h2.589c0.27-0.073 0.581-0.115 0.901-0.115 0.071 0 0.142 0.002 0.212 0.006l-0.010-0c0.058 0.003 0.127 0.004 0.196 0.004 0.334 0 0.659-0.038 0.97-0.111l-0.029 0.006c0.785-0.242 1.39-0.663 2.24-0.84 0.422-0.394 0.984-0.649 1.4-1.050 0.47-0.358 0.883-0.749 1.251-1.179l0.009-0.011c0.781-0.84 1.438-1.81 1.932-2.872l0.029-0.068c1.13-2.138 1.451-5.083 1.33-8.471-1.572-0.308-3.405-0.509-5.276-0.559l-0.045-0.001c-0.896-0.085-1.833-0.128-2.8-0.14-0.829-0.104-2.135-0.027-2.73-0.14-3.979 0.012-7.932-0.003-11.761-0.14-0.082 0.023-0.14 0.097-0.14 0.184 0 0.009 0.001 0.019 0.002 0.028l-0-0.001zM26.274 23.593c0.16 0.052 0.345 0.081 0.536 0.081 0.262 0 0.511-0.056 0.736-0.156l-0.012 0.005c0.414-0.076 0.611-0.37 0.98-0.49 0.543-0.577 1.105-1.135 1.26-2.1 0.014-0.085 0.021-0.184 0.021-0.284 0-0.332-0.086-0.644-0.237-0.915l0.005 0.010c-0.391-0.363-1.151-0.357-1.91-0.351-0.158 0-0.316 0.002-0.47 0-0.124 1.581-0.557 2.852-0.911 4.201zM13.532 25.833c-0.029-0.021-0.043-0.125-0.070-0.14-0.195-0.079-0.359-0.198-0.488-0.349l-0.001-0.002c-0.352-0.187-0.653-0.42-0.908-0.696l-0.002-0.002c-0.678-0.483-1.272-0.965-1.834-1.482l0.013 0.012c-0.323-0.47-0.624-0.964-0.91-1.47-0.135-0.483-0.213-1.037-0.213-1.609 0-0.074 0.001-0.148 0.004-0.221l-0 0.011c0.11-0.123 0.093-0.373 0.14-0.56 0.209-0.289 0.439-0.541 0.695-0.765l0.005-0.004c0.211-0.035 0.4-0.109 0.566-0.214l-0.006 0.004c0.955-0.092 1.566 0.161 2.24 0.349 0.414 0.216 0.64 0.621 1.12 0.77 0.835-0.378 1.517-0.91 2.52-1.12 0.113 0.020 0.12-0.066 0.21-0.070 0.111-0.009 0.241-0.014 0.372-0.014 0.44 0 0.867 0.056 1.274 0.161l-0.035-0.008c0.487 0.304 0.871 0.733 1.112 1.242l0.008 0.018c0.093 0.84-0.192 1.302-0.349 1.891-0.619 0.921-1.636 1.444-2.31 2.311-0.303 0.093-0.439 0.354-0.7 0.49-0.106 0.267-0.432 0.314-0.56 0.56-0.568 0.202-0.653 0.887-1.33 0.98-0.038-0.004-0.081-0.006-0.125-0.006-0.034 0-0.067 0.001-0.1 0.004l0.004-0c-0.035 0.002-0.068 0.004-0.101 0.004-0.006 0-0.012 0-0.019 0-0.083 0-0.159-0.027-0.221-0.074l0.001 0.001zM14.162 11.691c-0.048-0.044-0.113-0.071-0.184-0.071-0.009 0-0.018 0-0.027 0.001l0.001-0c-0.604-0.663 0.175-1.405 0.28-2.17 0.004-0.053 0.006-0.114 0.006-0.176 0-0.313-0.053-0.614-0.152-0.893l0.006 0.019c-0.155-0.241-0.193-0.6-0.42-0.77-0.121-0.342-0.239-0.62-0.371-0.889l0.022 0.049c-0.167-0.23-0.179-0.614-0.349-0.84-0.043-0.447-0.085-0.895-0.14-1.33 0.087-0.567 0.040-1.267 0.21-1.75 0.089-0.565 0.351-0.957 0.49-1.47 0.239-0.18 0.301-0.539 0.56-0.7 0.15-0.27 0.436-0.404 0.63-0.63 0.145 0.029 0.185-0.048 0.28-0.070h0.63c-0.098 0.401-0.268 0.753-0.496 1.058l0.005-0.008c-0.095 0.838-0.435 1.432-0.56 2.24v1.821c0.255 1.309 1.009 2.117 1.33 3.36 0.005 0.116 0.008 0.252 0.008 0.389 0 0.431-0.028 0.855-0.083 1.271l0.005-0.049c-0.126 0.201-0.223 0.435-0.277 0.685l-0.003 0.015c-0.361 0.362-0.52 0.926-1.19 0.98q-0.015 0-0.029 0c-0.070-0.001-0.134-0.027-0.183-0.071l0 0zM11.012 10.291c-0.422-0.745-1.093-1.24-1.681-1.82-0.078-0.219-0.197-0.406-0.349-0.56l0 0c0.006-0.099 0.012-0.198-0.070-0.21-0.015-0.127-0.023-0.275-0.023-0.424 0-1.208 0.552-2.288 1.417-3.001l0.007-0.005c0.145 0.029 0.186-0.049 0.28-0.070 0.1-0.006 0.198-0.012 0.21 0.070 0.246-0.062 0.073 0.181 0 0.21-0.037 0.103-0.103 0.176-0.14 0.28-0.114 0.166-0.157 0.403-0.28 0.56-0.037 0.284-0.059 0.612-0.059 0.945s0.021 0.662 0.063 0.984l-0.004-0.038c0.479 0.828 1.359 1.255 1.54 2.381 0.006 0.080 0.009 0.173 0.009 0.266 0 0.379-0.054 0.745-0.156 1.091l0.007-0.027c-0.2 0.198-0.468 0.327-0.766 0.349l-0.004 0zM19.133 11.062c-0.14-0.149 0.099-0.312 0.14-0.49 0.070-0.133 0.141-0.295 0.201-0.461l0.009-0.028c0.001-0.052 0.002-0.112 0.002-0.173 0-0.484-0.052-0.956-0.15-1.411l0.008 0.044c-0.255-0.586-0.625-1.056-0.84-1.68-0.056-0.779 0.145-1.301 0.7-1.47h0.14c0.058 0.29 0.154 0.548 0.286 0.784l-0.007-0.013c0.371 0.484 0.741 1.032 1.078 1.602l0.042 0.077c-0.004 0.026-0.006 0.057-0.006 0.088 0 0.154 0.055 0.295 0.147 0.404l-0.001-0.001c-0.003 0.044-0.004 0.095-0.004 0.146 0 0.221 0.027 0.436 0.078 0.642l-0.004-0.018c0.022 0.102 0.034 0.218 0.034 0.338 0 0.895-0.695 1.628-1.574 1.69l-0.005 0c-0.001 0-0.002 0-0.003 0-0.1 0-0.194-0.025-0.277-0.069l0.003 0.002z"></path>
</symbol>
<symbol id="icon-menu-svgrepo-com" viewBox="0 0 32 32">
<path d="M2.667 9.333c0-0.736 0.597-1.333 1.333-1.333v0h24c0.736 0 1.333 0.597 1.333 1.333s-0.597 1.333-1.333 1.333v0h-24c-0.736 0-1.333-0.597-1.333-1.333v0zM2.667 16c0-0.736 0.597-1.333 1.333-1.333v0h24c0.736 0 1.333 0.597 1.333 1.333s-0.597 1.333-1.333 1.333v0h-24c-0.736 0-1.333-0.597-1.333-1.333v0zM4 21.333c-0.736 0-1.333 0.597-1.333 1.333s0.597 1.333 1.333 1.333v0h24c0.736 0 1.333-0.597 1.333-1.333s-0.597-1.333-1.333-1.333v0h-24z"></path>
</symbol>
<symbol id="icon-close-svgrepo-com" viewBox="0 0 32 32">
<path d="M25.609 8.276c0.232-0.24 0.374-0.566 0.374-0.926 0-0.736-0.597-1.333-1.333-1.333-0.36 0-0.687 0.143-0.927 0.375l-7.724 7.724-7.724-7.724c-0.24-0.232-0.566-0.374-0.926-0.374-0.736 0-1.333 0.597-1.333 1.333 0 0.36 0.143 0.687 0.375 0.927l7.724 7.724-7.724 7.724c-0.251 0.243-0.407 0.583-0.407 0.959 0 0.736 0.597 1.333 1.333 1.333 0.376 0 0.716-0.156 0.959-0.407l7.724-7.724 7.724 7.724c0.24 0.232 0.566 0.374 0.926 0.374 0.736 0 1.333-0.597 1.333-1.333 0-0.36-0.143-0.687-0.375-0.927l-7.724-7.724 7.724-7.724z"></path>
</symbol>
</defs>
</svg>
