<svg aria-hidden="true" style="position: absolute; width: 0; height: 0; overflow: hidden;" version="1.1" xmlns="http://www.w3.org/2000/svg" xmlns:xlink="http://www.w3.org/1999/xlink">
<defs>
<symbol id="icon-location" viewBox="0 0 32 32">
<path d="M16 0c-6.628 0-12 5.372-12 12 0 2.839 1.251 5.335 2.636 7.5l8.549 12.078c0.188 0.265 0.492 0.422 0.816 0.422s0.628-0.157 0.816-0.422l8.549-12.078c1.323-1.781 2.636-4.661 2.636-7.5 0-6.628-5.372-12-12-12zM24.044 19.5h-0.005l-8.039 11-8.043-11c-1.222-1.765-2.957-4.601-2.957-7.5 0-6.075 4.925-11 11-11s11 4.925 11 11c0 2.899-1.86 5.89-2.956 7.5z"></path>
<path d="M16 7c-2.761 0-5 2.239-5 5s2.239 5 5 5 5-2.239 5-5-2.239-5-5-5zM16 16c-2.209 0-4-1.791-4-4s1.791-4 4-4 4 1.791 4 4-1.791 4-4 4z"></path>
<path d="M16 5c-3.866 0-7 3.134-7 7s3.134 7 7 7 7-3.134 7-7-3.134-7-7-7zM16 18c-3.313 0-6-2.687-6-6s2.687-6 6-6 6 2.687 6 6-2.686 6-6 6z"></path>
</symbol>
<symbol id="icon-facebook" viewBox="0 0 32 32">
<path d="M26.667 1.333h-21.333c-2.209 0-4 1.791-4 4v21.333c0 2.209 1.791 4 4 4h21.333c2.209 0 4-1.791 4-4v-21.333c0-2.209-1.791-4-4-4zM26.667 4c0.736 0 1.333 0.597 1.333 1.333v21.333c0 0.736-0.597 1.333-1.333 1.333h-6.667v-9.333h2.768c0.574 0 1.083-0.367 1.265-0.912l0.591-1.772c0.216-0.648-0.266-1.316-0.949-1.316h-3.675v-2.667c0-0.667 0.667-1.333 1.333-1.333h2.667c0.736 0 1.333-0.597 1.333-1.333v-0.915c0-0.431-0.275-0.817-0.692-0.927-1.748-0.461-3.308-0.461-3.308-0.461-3.333 0-5.333 2.303-5.333 4.303v3.333h-2.667c-0.736 0-1.333 0.597-1.333 1.333v1.333c0 0.736 0.597 1.333 1.333 1.333h2.667v9.333h-10.667c-0.736 0-1.333-0.597-1.333-1.333v-21.333c0-0.736 0.597-1.333 1.333-1.333h21.333z"></path>
</symbol>
<symbol id="icon-food" viewBox="0 0 32 32">
<path d="M12.002 8.58l0.002-1.584c0.002-2.207 1.792-3.996 4-3.996v0c2.204 0 3.99 1.786 3.99 3.99v1.586c5.834 1.779 10.006 7.114 10.006 13.423 0 0.706-0.052 1.4-0.153 2.078l0.009-0.077h-27.714c-0.091-0.601-0.143-1.294-0.143-1.999 0-6.307 4.169-11.641 9.902-13.395l0.099-0.026zM3 26h26c0.552 0 1 0.448 1 1s-0.448 1-1 1v0h-26c-0.552 0-1-0.448-1-1s0.448-1 1-1v0zM4 22h24c0-6.627-5.373-12-12-12s-12 5.373-12 12v0zM17.994 8v-1.010c0-1.099-0.891-1.99-1.99-1.99v0c-1.104 0-1.999 0.894-2 1.998v1.002h3.99z"></path>
</symbol>
<symbol id="icon-phone" viewBox="0 0 32 32">
<path d="M18.532 9.031h-0.030c-0.276 0-0.485 0.224-0.485 0.5s0.239 0.5 0.515 0.5 0.5-0.224 0.5-0.5-0.224-0.5-0.5-0.5z"></path>
<path d="M22.589 9.031h-0.028c-0.276 0-0.486 0.224-0.486 0.5s0.238 0.5 0.514 0.5 0.5-0.224 0.5-0.5-0.224-0.5-0.5-0.5z"></path>
<path d="M26.649 9.031h-0.030c-0.276 0-0.485 0.224-0.485 0.5s0.239 0.5 0.515 0.5 0.5-0.224 0.5-0.5-0.224-0.5-0.5-0.5z"></path>
<path d="M22.598 22.963c-2.574-1.452-3.345-1.333-5.309-0.223-1.007 0.669-2.22 0.261-4.328-1.456-0.414-0.337-0.83-0.713-1.234-1.116-0.405-0.406-0.78-0.822-1.117-1.236-1.589-1.95-2.022-3.729-1.506-4.266 1.521-1.636 1.176-2.979-0.167-5.359-0.809-1.53-1.697-3.052-2.878-3.401-0.857-0.252-2.129 0.408-2.508 0.659-0.975 0.649-1.9 1.797-2.416 2.997-0.948 2.207-0.697 4.866-0.145 6.62 0.906 2.875 3.081 6.203 5.817 8.904 2.702 2.738 6.031 4.912 8.904 5.816 0.908 0.286 2.058 0.492 3.264 0.492 1.122 0 2.291-0.178 3.356-0.636 1.199-0.516 2.347-1.442 2.994-2.415 0.252-0.378 0.914-1.65 0.659-2.511-0.347-1.18-1.87-2.068-3.387-2.87zM22.118 23.841c0.926 0.489 2.65 1.401 2.907 2.276 0.053 0.178-0.011 0.503-0.13 0.84l-6.765-3.544c1.272-0.704 1.788-0.812 3.987 0.428zM5.776 6.866c0.876 0.259 1.788 1.983 2.284 2.921 1.311 2.323 1.306 3.057 0.464 4.029l-3.649-6.798c0.278-0.103 0.552-0.171 0.75-0.171 0.058-0 0.109 0.006 0.152 0.019zM21.936 29.84c-1.959 0.842-4.416 0.585-5.925 0.108-2.726-0.857-5.902-2.938-8.495-5.566-0.002-0.002-0.003-0.003-0.005-0.005-2.627-2.592-4.709-5.768-5.568-8.495-0.475-1.51-0.731-3.967 0.11-5.925 0.422-0.982 1.156-1.915 1.935-2.474l3.962 7.381c-0.218 1.187 0.459 2.952 1.884 4.7 0.358 0.439 0.756 0.88 1.186 1.311 0.43 0.428 0.87 0.826 1.31 1.184 1.544 1.258 3.165 2.313 4.683 1.896l7.435 3.896c-0.554 0.799-1.507 1.556-2.512 1.989z"></path>
<path d="M30.478 5.386c-2.285-4.356-7.69-6.041-12.047-3.757l-0 0c-4.356 2.286-6.041 7.691-3.757 12.048 0.166 0.316 0.354 0.627 0.564 0.931l-1.351 2.315c-0.094 0.161-0.091 0.362 0.010 0.52s0.28 0.246 0.466 0.23l3.875-0.343c1.355 0.753 2.845 1.131 4.337 1.131 1.419 0 2.839-0.342 4.146-1.028 4.356-2.286 6.042-7.69 3.757-12.048zM26.256 16.548c-2.424 1.271-5.286 1.211-7.658-0.163-0.076-0.044-0.163-0.067-0.25-0.067-0.015 0-0.029 0.001-0.044 0.002l-3.067 0.271 1.027-1.759c0.101-0.173 0.089-0.39-0.031-0.55-0.257-0.345-0.483-0.705-0.674-1.069-2.029-3.869-0.532-8.668 3.336-10.698l-0 0c3.869-2.029 8.668-0.532 10.698 3.336 2.029 3.869 0.532 8.668-3.336 10.697z"></path>
</symbol>
<symbol id="icon-email" viewBox="0 0 32 32">
<path d="M17.507 15.916c0.274-0.030 0.473-0.277 0.443-0.551s-0.276-0.472-0.551-0.443c-3.247 0.352-4.79-0.844-5.513-1.91-1.010-1.49-1.032-3.641-0.057-5.479 0.971-1.831 2.678-2.881 4.683-2.881 0 0 0.001 0 0.001 0 1.527 0 2.897 0.623 3.665 1.666 0.801 1.088 0.932 2.601 0.379 4.374-0.217 0.696-0.924 1.609-1.547 1.789-0.254 0.074-0.455 0.047-0.612-0.083-0.181-0.151-0.246-0.384-0.241-0.477 0.001-0.006 0.001-0.011 0.002-0.017l0.548-5.478c0.029-0.275-0.169-0.521-0.444-0.55-0.279-0.030-0.521 0.169-0.55 0.444l-0.048 0.454c-0.009-0.006-0.016-0.014-0.025-0.021-0.641-0.461-1.538-0.506-2.402-0.12-1.471 0.656-2.533 2.74-2.273 4.46 0.195 1.29 1.104 2.126 2.496 2.292 0.639 0.076 1.423-0.113 2.004-0.543 0.084 0.121 0.184 0.232 0.295 0.324 0.412 0.342 0.955 0.44 1.528 0.274 1.004-0.291 1.919-1.475 2.224-2.452 0.822-2.64 0.166-4.32-0.528-5.264-0.956-1.299-2.627-2.074-4.471-2.074-0 0-0.001 0-0.001 0-2.387 0-4.416 1.244-5.566 3.413-1.146 2.162-1.102 4.717 0.113 6.509 1.067 1.574 2.912 2.409 5.267 2.409 0.381 0 0.776-0.022 1.182-0.066zM17.457 8.748l-0.285 2.971c-0.291 0.477-1.053 0.737-1.594 0.674-0.95-0.114-1.497-0.601-1.626-1.449-0.192-1.273 0.63-2.924 1.692-3.397 0.257-0.114 0.517-0.172 0.755-0.172 0.251 0 0.48 0.064 0.656 0.19 0.315 0.226 0.453 0.636 0.401 1.183z"></path>
<path d="M29.653 10.827l-3.632-2.249v-7.578c0-0.276-0.224-0.5-0.5-0.5h-19.282c-0.276 0-0.5 0.224-0.5 0.5v7.508c-1.736 1.094-2.903 1.892-3.458 2.367-0.763 0.652-1.183 1.582-1.183 2.617v14.512c-0 1.927 1.568 3.496 3.495 3.496h22.814c0.942 0 1.796-0.376 2.425-0.984 0.001-0.001 0.003-0.002 0.004-0.003s0.001-0.001 0.001-0.002c0.655-0.636 1.065-1.524 1.065-2.507v-14.512c0-0.872-0.327-2.094-1.249-2.665zM26.021 9.754l2.53 1.567-2.53 2.206v-3.773zM29.392 11.913c0.348 0.4 0.51 1.038 0.51 1.579v14.512c0 0.537-0.175 1.032-0.465 1.44l-9.642-9.161 9.596-8.37zM6.739 1.5h18.282v12.898l-9.022 7.87-9.261-8.074v-12.694zM5.739 9.692v3.631l-2.349-2.048c0.528-0.392 1.321-0.927 2.349-1.583zM2.098 28.004v-14.512c0-0.596 0.19-1.12 0.539-1.546l9.926 8.653-9.672 9.22c-0.485-0.456-0.793-1.098-0.793-1.814zM4.593 30.5c-0.286 0-0.557-0.058-0.813-0.148l9.539-9.094 2.351 2.050c0.094 0.082 0.211 0.123 0.329 0.123s0.235-0.041 0.329-0.123l2.711-2.365 9.665 9.183c-0.379 0.233-0.82 0.374-1.296 0.374h-22.814z"></path>
</symbol>
<symbol id="icon-instagram" viewBox="0 0 32 32">
<path d="M9.391 0.196c-2.605 0.118-4.862 0.754-6.685 2.57-1.829 1.825-2.458 4.091-2.576 6.668-0.073 1.609-0.501 13.763 0.74 16.95 0.837 2.15 2.487 3.804 4.657 4.644 1.013 0.394 2.168 0.661 3.864 0.738 14.177 0.642 19.433 0.292 21.649-5.382 0.393-1.010 0.664-2.165 0.739-3.856 0.648-14.214-0.105-17.295-2.576-19.763-1.96-1.955-4.265-3.286-19.812-2.57zM9.522 28.908c-1.552-0.070-2.394-0.329-2.956-0.546-1.414-0.549-2.476-1.607-3.022-3.013-0.946-2.422-0.632-13.925-0.548-15.786 0.083-1.823 0.452-3.489 1.739-4.775 1.592-1.588 3.649-2.366 17.654-1.734 1.828 0.083 3.498 0.451 4.787 1.734 1.592 1.588 2.382 3.661 1.739 17.612-0.070 1.548-0.33 2.389-0.548 2.949-1.441 3.692-4.756 4.205-18.845 3.559zM22.543 7.503c0 1.051 0.855 1.906 1.91 1.906s1.912-0.854 1.912-1.906c0-1.051-0.857-1.906-1.912-1.906s-1.91 0.854-1.91 1.906zM7.78 15.981c0 4.504 3.66 8.155 8.175 8.155s8.175-3.651 8.175-8.155c0-4.504-3.66-8.153-8.175-8.153s-8.175 3.649-8.175 8.153zM10.649 15.981c0-2.922 2.375-5.293 5.306-5.293s5.306 2.371 5.306 5.293c0 2.924-2.375 5.295-5.306 5.295s-5.306-2.371-5.306-5.295z"></path>
</symbol>
<symbol id="icon-coffee" viewBox="0 0 32 32">
<path d="M7.651 30.804c-0.478-0.246-1.068-0.378-1.47-0.701-0.557-0.166-0.939-0.509-1.4-0.77-0.841-0.59-1.557-1.285-2.153-2.076l-0.017-0.024c-1.239-1.632-1.98-3.761-2.31-6.301-0.044-0.511-0.069-1.106-0.069-1.706 0-0.854 0.050-1.697 0.148-2.525l-0.010 0.1c0.079-0.645 0.155-1.292 0.28-1.891 0.184-0.517 0.27-1.13 0.63-1.47 1.427-0.439 3.181-0.553 4.97-0.63 1.255-0.081 2.597-0.076 3.939-0.071 0.532 0.002 1.065 0.004 1.592 0 0.113 0.020 0.121-0.066 0.21-0.070 2.577 0.036 5.127 0.101 7.631 0.21 2.39 0.201 4.947 0.233 7.071 0.7 0.342 0.638 0.449 1.511 0.49 2.45 0.072 0.062 0.221 0.038 0.384 0.014 0.059-0.019 0.128-0.031 0.199-0.031 0.12 0 0.233 0.032 0.33 0.088l-0.003-0.002c0.027-0 0.059-0.001 0.091-0.001 0.338 0 0.671 0.026 0.995 0.075l-0.036-0.005c0.159 0.145 0.464 0.143 0.63 0.28 0.218 0.063 0.326 0.234 0.56 0.28 0.236 0.3 0.524 0.55 0.77 0.84 0.418 0.88 0.662 1.911 0.662 3 0 0.424-0.037 0.84-0.108 1.243l0.006-0.043c-0.38 0.74-0.74 1.5-1.33 2.030-0.461 0.659-1.182 1.059-1.891 1.47-0.401 0.066-0.727 0.205-1.12 0.28-0.113 0.010-0.244 0.015-0.377 0.015-0.516 0-1.012-0.082-1.477-0.235l0.033 0.009c-0.184 0.194-0.327 0.428-0.416 0.687l-0.004 0.013c-0.204 0.145-0.278 0.422-0.42 0.63-0.675 0.655-1.251 1.41-1.96 2.030-0.698 0.633-1.46 1.2-2.17 1.82-0.695 0.32-1.346 0.754-2.1 0.98-0.072 0.021-0.132-0.011-0.14 0.070-1.080 0.133-2.133 0.294-3.22 0.42q-0.262 0.006-0.515 0.006c-2.477-0.008-4.849-0.445-7.050-1.241l0.146 0.046zM2.822 14.562c-0.436 1.222-0.427 2.887-0.42 4.55 0.025 1.533 0.278 2.999 0.728 4.376l-0.030-0.105c0.055 0.016 0.082 0.058 0.070 0.14 0.293 0.594 0.712 1.061 0.98 1.68 0.179 0.265 0.324 0.563 0.49 0.84 0.207 0.245 0.393 0.52 0.548 0.814l0.012 0.025c0.465 0.398 0.873 0.855 1.33 1.261 0.303 0.047 0.376 0.324 0.7 0.349 0.087 0.262 0.52 0.18 0.63 0.42 0.764 0.193 1.395 0.519 2.24 0.63 0.142 0.089 0.314 0.142 0.499 0.142 0.021 0 0.043-0.001 0.064-0.002l-0.003 0c0.178 0.088 0.387 0.14 0.608 0.14 0.008 0 0.015-0 0.023-0h-0.001c0.387 0.103 0.848 0.132 1.261 0.21h2.589c0.27-0.073 0.581-0.115 0.901-0.115 0.071 0 0.142 0.002 0.212 0.006l-0.010-0c0.058 0.003 0.127 0.004 0.196 0.004 0.334 0 0.659-0.038 0.97-0.111l-0.029 0.006c0.785-0.242 1.39-0.663 2.24-0.84 0.422-0.394 0.984-0.649 1.4-1.050 0.47-0.358 0.883-0.749 1.251-1.179l0.009-0.011c0.781-0.84 1.438-1.81 1.932-2.872l0.029-0.068c1.13-2.138 1.451-5.083 1.33-8.471-1.572-0.308-3.405-0.509-5.276-0.559l-0.045-0.001c-0.896-0.085-1.833-0.128-2.8-0.14-0.829-0.104-2.135-0.027-2.73-0.14-3.979 0.012-7.932-0.003-11.761-0.14-0.082 0.023-0.14 0.097-0.14 0.184 0 0.009 0.001 0.019 0.002 0.028l-0-0.001zM26.274 23.593c0.16 0.052 0.345 0.081 0.536 0.081 0.262 0 0.511-0.056 0.736-0.156l-0.012 0.005c0.414-0.076 0.611-0.37 0.98-0.49 0.543-0.577 1.105-1.135 1.26-2.1 0.014-0.085 0.021-0.184 0.021-0.284 0-0.332-0.086-0.644-0.237-0.915l0.005 0.010c-0.391-0.363-1.151-0.357-1.91-0.351-0.158 0-0.316 0.002-0.47 0-0.124 1.581-0.557 2.852-0.911 4.201zM13.532 25.833c-0.029-0.021-0.043-0.125-0.070-0.14-0.195-0.079-0.359-0.198-0.488-0.349l-0.001-0.002c-0.352-0.187-0.653-0.42-0.908-0.696l-0.002-0.002c-0.678-0.483-1.272-0.965-1.834-1.482l0.013 0.012c-0.323-0.47-0.624-0.964-0.91-1.47-0.135-0.483-0.213-1.037-0.213-1.609 0-0.074 0.001-0.148 0.004-0.221l-0 0.011c0.11-0.123 0.093-0.373 0.14-0.56 0.209-0.289 0.439-0.541 0.695-0.765l0.005-0.004c0.211-0.035 0.4-0.109 0.566-0.214l-0.006 0.004c0.955-0.092 1.566 0.161 2.24 0.349 0.414 0.216 0.64 0.621 1.12 0.77 0.835-0.378 1.517-0.91 2.52-1.12 0.113 0.020 0.12-0.066 0.21-0.070 0.111-0.009 0.241-0.014 0.372-0.014 0.44 0 0.867 0.056 1.274 0.161l-0.035-0.008c0.487 0.304 0.871 0.733 1.112 1.242l0.008 0.018c0.093 0.84-0.192 1.302-0.349 1.891-0.619 0.921-1.636 1.444-2.31 2.311-0.303 0.093-0.439 0.354-0.7 0.49-0.106 0.267-0.432 0.314-0.56 0.56-0.568 0.202-0.653 0.887-1.33 0.98-0.038-0.004-0.081-0.006-0.125-0.006-0.034 0-0.067 0.001-0.1 0.004l0.004-0c-0.035 0.002-0.068 0.004-0.101 0.004-0.006 0-0.012 0-0.019 0-0.083 0-0.159-0.027-0.221-0.074l0.001 0.001zM14.162 11.691c-0.048-0.044-0.113-0.071-0.184-0.071-0.009 0-0.018 0-0.027 0.001l0.001-0c-0.604-0.663 0.175-1.405 0.28-2.17 0.004-0.053 0.006-0.114 0.006-0.176 0-0.313-0.053-0.614-0.152-0.893l0.006 0.019c-0.155-0.241-0.193-0.6-0.42-0.77-0.121-0.342-0.239-0.62-0.371-0.889l0.022 0.049c-0.167-0.23-0.179-0.614-0.349-0.84-0.043-0.447-0.085-0.895-0.14-1.33 0.087-0.567 0.040-1.267 0.21-1.75 0.089-0.565 0.351-0.957 0.49-1.47 0.239-0.18 0.301-0.539 0.56-0.7 0.15-0.27 0.436-0.404 0.63-0.63 0.145 0.029 0.185-0.048 0.28-0.070h0.63c-0.098 0.401-0.268 0.753-0.496 1.058l0.005-0.008c-0.095 0.838-0.435 1.432-0.56 2.24v1.821c0.255 1.309 1.009 2.117 1.33 3.36 0.005 0.116 0.008 0.252 0.008 0.389 0 0.431-0.028 0.855-0.083 1.271l0.005-0.049c-0.126 0.201-0.223 0.435-0.277 0.685l-0.003 0.015c-0.361 0.362-0.52 0.926-1.19 0.98q-0.015 0-0.029 0c-0.070-0.001-0.134-0.027-0.183-0.071l0 0zM11.012 10.291c-0.422-0.745-1.093-1.24-1.681-1.82-0.078-0.219-0.197-0.406-0.349-0.56l0 0c0.006-0.099 0.012-0.198-0.070-0.21-0.015-0.127-0.023-0.275-0.023-0.424 0-1.208 0.552-2.288 1.417-3.001l0.007-0.005c0.145 0.029 0.186-0.049 0.28-0.070 0.1-0.006 0.198-0.012 0.21 0.070 0.246-0.062 0.073 0.181 0 0.21-0.037 0.103-0.103 0.176-0.14 0.28-0.114 0.166-0.157 0.403-0.28 0.56-0.037 0.284-0.059 0.612-0.059 0.945s0.021 0.662 0.063 0.984l-0.004-0.038c0.479 0.828 1.359 1.255 1.54 2.381 0.006 0.080 0.009 0.173 0.009 0.266 0 0.379-0.054 0.745-0.156 1.091l0.007-0.027c-0.2 0.198-0.468 0.327-0.766 0.349l-0.004 0zM19.133 11.062c-0.14-0.149 0.099-0.312 0.14-0.49 0.070-0.133 0.141-0.295 0.201-0.461l0.009-0.028c0.001-0.052 0.002-0.112 0.002-0.173 0-0.484-0.052-0.956-0.15-1.411l0.008 0.044c-0.255-0.586-0.625-1.056-0.84-1.68-0.056-0.779 0.145-1.301 0.7-1.47h0.14c0.058 0.29 0.154 0.548 0.286 0.784l-0.007-0.013c0.371 0.484 0.741 1.032 1.078 1.602l0.042 0.077c-0.004 0.026-0.006 0.057-0.006 0.088 0 0.154 0.055 0.295 0.147 0.404l-0.001-0.001c-0.003 0.044-0.004 0.095-0.004 0.146 0 0.221 0.027 0.436 0.078 0.642l-0.004-0.018c0.022 0.102 0.034 0.218 0.034 0.338 0 0.895-0.695 1.628-1.574 1.69l-0.005 0c-0.001 0-0.002 0-0.003 0-0.1 0-0.194-0.025-0.277-0.069l0.003 0.002z"></path>
</symbol>
<symbol id="icon-menu-svgrepo-com" viewBox="0 0 32 32">
<path d="M2.667 9.333c0-0.736 0.597-1.333 1.333-1.333v0h24c0.736 0 1.333 0.597 1.333 1.333s-0.597 1.333-1.333 1.333v0h-24c-0.736 0-1.333-0.597-1.333-1.333v0zM2.667 16c0-0.736 0.597-1.333 1.333-1.333v0h24c0.736 0 1.333 0.597 1.333 1.333s-0.597 1.333-1.333 1.333v0h-24c-0.736 0-1.333-0.597-1.333-1.333v0zM4 21.333c-0.736 0-1.333 0.597-1.333 1.333s0.597 1.333 1.333 1.333v0h24c0.736 0 1.333-0.597 1.333-1.333s-0.597-1.333-1.333-1.333v0h-24z"></path>
</symbol>
<symbol id="icon-close-svgrepo-com" viewBox="0 0 32 32">
<path d="M25.609 8.276c0.232-0.24 0.374-0.566 0.374-0.926 0-0.736-0.597-1.333-1.333-1.333-0.36 0-0.687 0.143-0.927 0.375l-7.724 7.724-7.724-7.724c-0.24-0.232-0.566-0.374-0.926-0.374-0.736 0-1.333 0.597-1.333 1.333 0 0.36 0.143 0.687 0.375 0.927l7.724 7.724-7.724 7.724c-0.251 0.243-0.407 0.583-0.407 0.959 0 0.736 0.597 1.333 1.333 1.333 0.376 0 0.716-0.156 0.959-0.407l7.724-7.724 7.724 7.724c0.24 0.232 0.566 0.374 0.926 0.374 0.736 0 1.333-0.597 1.333-1.333 0-0.36-0.143-0.687-0.375-0.927l-7.724-7.724 7.724-7.724z"></path>
</symbol>
</defs>
</svg>
